<svg width="58" height="58" viewBox="0 0 58 58" fill="none" xmlns="http://www.w3.org/2000/svg">
<path fill-rule="evenodd" clip-rule="evenodd" d="M50 48.8463C43.6113 51.8816 38.4843 46.9845 41.1601 40.4307C38.8896 41.9211 36.3281 44.7556 31.2676 45.3794C18.2795 46.9797 9.75206 34.6435 13.1453 24.2552C13.4149 23.4284 13.9355 22.2933 14.1267 21.489C12.3008 22.9833 10.0227 24.8383 6.45204 23.075C4.14567 21.936 2.7724 19.4429 3.29721 16C1.68161 17.6513 0.4499 23.649 0.210538 25.7009C-0.29189 30.0109 0.129876 33.7787 1.2098 37.2223C3.32652 43.9724 6.885 48.666 12.0311 52.4699C18.5465 57.287 28.2807 59.7706 38.0375 56.5467C40.8578 55.6146 44.4466 53.8278 46.6397 52.0719C47.7463 51.1864 49.3264 49.9934 50 48.846V48.8463Z" fill="#FFFF7F"/>
<path fill-rule="evenodd" clip-rule="evenodd" d="M9.65924 21.413C3.42139 21.413 4.48131 13.3452 9.15352 13.3452C14.6864 13.3452 14.216 21.413 9.65924 21.413ZM42.5653 15.1099C37.1623 15.1099 37.2636 7.0427 42.5653 7.0427C47.8273 7.0427 47.8273 15.1099 42.5653 15.1099ZM3.11162 16.1185C2.58611 19.6004 3.96208 22.1214 6.27262 23.2736C9.85026 25.057 12.1331 23.1809 13.9623 21.6696C14.7431 20.7632 15.4108 18.5974 18.2254 16.3311C23.7883 11.8516 30.6774 11.35 37.0004 14.6019C38.1316 15.1838 39.0028 15.9591 40.034 16.6084C47.0465 19.1868 51.2281 12.5899 47.7544 7.04237C41.6155 0.890648 30.6441 -1.39473 21.654 0.837095C17.4515 1.88056 13.254 4.16791 10.4747 6.5939C8.04577 8.71435 3.62395 13.1106 3.1113 16.1182L3.11162 16.1185Z" fill="#6699FF"/>
<path fill-rule="evenodd" clip-rule="evenodd" d="M42.5354 43.8674C42.5354 37.9955 50.6479 38.5001 50.6479 43.6161C50.6479 47.0498 46.4823 48.8424 43.8613 46.568C43.3763 46.1474 42.5351 44.6057 42.5351 43.8674H42.5354ZM40.0007 16.5161L41.9714 18.8441C46.9379 24.7866 46.3924 33.3953 42.0303 39.3551C41.6401 39.8879 41.3754 40.0719 41.0163 40.6069C38.3312 47.2004 43.4761 52.1271 49.887 49.0735C51.8713 48.0649 54.9687 42.2061 55.8621 39.998C59.7971 30.2803 58.2558 18.8013 51.604 10.8181C50.8134 9.86959 48.7831 7.36801 47.7322 7C51.2115 12.5186 47.0235 19.0807 40 16.5161H40.0007Z" fill="#FF6666"/>
</svg>
